<svg class="text-white" width="3913" height="1346" viewBox="0 0 3913 1346" fill="currentColor" xmlns="http://www.w3.org/2000/svg">
<path d="M614.903 498.266C614.903 508.888 614.903 518.112 614.903 527.305C615.034 529.536 614.354 531.74 612.989 533.509C595.892 548.84 592.064 570.635 584.797 590.708C582.169 597.952 579.542 605.195 577.465 612.568C570.263 638.131 553.621 650.669 527.019 651.027C499.314 651.384 471.609 652.651 443.937 653.495C426.159 654.015 410.944 647.648 400.433 633.584C389.435 618.87 380.06 602.921 370.327 587.265C365.688 579.762 362.379 571.415 357.643 563.976C347.91 548.84 331.884 548.742 322.509 563.976C316.247 574.11 311.316 585.057 305.38 595.418C299.832 605.163 294.155 614.712 287.861 623.904C273.814 644.433 254.966 655.574 229.207 653.82C198.907 651.774 168.542 650.572 138.209 648.85C132.368 648.85 126.659 647.108 121.811 643.845C116.963 640.582 113.196 635.947 110.991 630.531C104.665 615.719 98.7282 600.68 93.4078 585.479C86.9196 567.03 82.7022 547.573 67.0654 533.768C65.6663 532.014 64.9618 529.806 65.0865 527.565C64.8919 518.34 65.0865 509.115 65.0865 498.526C78.0631 497.162 90.6827 496.122 103.075 494.401C117.836 492.355 133.051 491.413 147.098 486.963C174.479 478.225 201.113 482.545 227.877 488.002C250.067 492.517 272.127 497.747 294.122 503.138C299.248 504.373 308.462 501.644 306.807 512.883C306.807 513.89 311.803 516.878 314.528 516.911C331.592 517.268 348.656 517.43 365.721 516.586C368.316 516.586 377.432 516.164 372.76 507.718C374.403 506.512 376.204 505.539 378.113 504.827C416.848 496.805 455.453 488.229 494.383 481.506C505.14 480.133 516.069 481.565 526.111 485.663C549.728 494.823 574.448 493.784 598.779 496.61L615 498.331" />
<path d="M640.426 674.057C641.669 668.336 641.899 662.16 644.288 656.958C656.656 630.369 663.821 601.686 665.401 572.439C665.652 568.591 665.543 564.727 665.074 560.899C662.848 543.833 658.756 540.679 640 542.532C641.047 534.828 640.458 526.669 643.535 520.265C645.079 517.764 647.164 515.636 649.638 514.034C652.112 512.432 654.913 511.395 657.84 511C660.785 511.008 663.693 511.648 666.365 512.877C669.038 514.106 671.411 515.894 673.322 518.119C677.086 523.901 679.211 530.582 679.476 537.461C683.175 587.23 666.841 631.96 644.321 675L640.426 674.057Z" />
<path d="M39.9674 543.01C21.3141 541.231 16.6914 544.142 15.4544 560.571C12.9477 593.851 21.9651 624.964 34.9867 655.269C37.0906 661.497 38.6588 667.891 39.6744 674.383L34.8239 676C27.011 656.433 18.547 637.19 11.5153 617.235C2.1421 591.976 -1.5794 564.991 0.609766 538.158C1.22829 531.852 2.23747 524.187 6.14394 519.918C10.0504 515.648 18.547 511.315 24.309 512.091C29.2572 512.738 34.4658 519.853 37.3306 525.286C39.8047 530.008 39.1536 536.347 40 543.01" />
<path d="M28.1133 591C33.0859 606.819 38.0481 622.648 43 638.489L37.9031 640C33.925 623.902 29.9573 607.773 26 591.611L28.1133 591Z" />
<path d="M636 638.487C640.696 625.002 645.38 611.507 650.054 598L653 598.691C649.365 612.482 645.73 626.252 642.096 640L636 638.487Z" />
<path d="M682.889 194.361C671.875 187.997 658.898 185.92 646.446 188.528C639.586 189.503 633.024 191.974 627.225 195.765C621.426 199.555 616.532 204.574 612.889 210.465C613.603 199.319 615.159 188.658 616.132 178.062C617.72 158.394 619.212 138.628 614.154 119.218C612.521 114.837 610.424 110.644 607.896 106.711L605.562 107.748C608.999 129.328 614.219 150.941 604.816 172.554C601.583 162.847 599.175 152.886 597.618 142.775C593.792 118.214 587.308 94.9807 573.885 73.854C570.385 69.1977 566.479 64.8604 562.213 60.8927L560.073 62.5452C562.116 67.4381 564.029 72.4282 566.233 77.2562C578.042 103.874 585.853 132.088 589.415 160.986C589.868 168.221 589.738 175.481 589.026 182.696H586.53C585.201 179.455 583.709 176.474 582.542 173.266C576.641 157.324 571.226 141.188 564.904 125.407C552.259 93.6522 519.091 60.6011 490.786 50.8802C497.53 59.0026 504.285 67.1465 511.05 75.312C508.17 74.999 505.438 73.8754 503.172 72.0717C477.234 53.5372 451.912 34.4194 425.358 16.6625C414.918 9.66344 402.662 5.28912 390.698 0.655487C386.808 -0.835053 381.717 0.655479 377.178 0.849898C377.178 1.53036 377.178 2.21077 377.178 2.92364C390.147 9.9227 403.311 16.5005 416.085 23.9856C432.912 33.901 444.52 44.7236 448.507 53.1484C426.006 37.4653 404.899 19.9352 376.303 16.0793L386.029 28.2628C358.632 18.0559 332.889 5.28907 303.158 10.0199C325.853 20.0973 351.305 25.0549 367.646 46.6678C359.054 44.594 350.851 41.5481 342.583 38.7291C319.304 30.8227 296.057 22.5275 272.583 15.3341C265.157 13.478 257.541 12.4885 249.887 12.3854C246.84 12.1586 241.976 12.3854 240.874 14.2971C238.086 18.9632 234.39 17.6994 230.629 17.7966C187.247 19.3196 146.881 30.2394 111.508 56.4859C106.386 60.277 101.782 64.6839 97.5993 68.1834L132.356 60.439C132.518 61.1519 132.68 61.8324 132.875 62.5452C123.375 68.2482 107.585 67.827 110.601 85.8107C103.111 89.5694 95.6215 93.2633 88.1967 97.0869C72.9258 104.928 60.3459 115.265 52.532 131.143C49.5816 137.04 43.7456 141.544 39.0119 146.469C35.1212 150.552 30.9387 154.376 26.8535 158.296L27.9558 159.366L52.7914 148.251L53.7317 150.001C45.1722 156.287 35.8993 161.958 31.6196 173.623L39.0119 171.095C23.3194 195.592 11.9716 231.462 13.0739 252.848L26.9183 225.662L28.8637 226.375C25.7295 239.79 22.5953 253.216 19.4611 266.652L20.6284 266.879L30.0633 248.377L33.0462 249.284C30.2578 264.773 27.4803 280.272 24.7136 295.782L26.6589 296.074C37.6177 269.179 48.6738 255.181 62.1615 252.006C50.0355 264.092 38.1689 275.66 39.4658 294.13H43.4213C40.3736 302.781 37.2611 311.336 34.343 320.052C31.425 328.769 26.5617 337.971 25.7835 347.174C23.1897 377.794 19.8826 408.739 31.2953 438.55C32.305 441.603 32.9259 444.771 33.1434 447.979C35.9318 473.448 38.558 498.949 41.4436 524.418C45.0317 556.238 48.771 588.025 52.6617 619.78C53.4399 626.261 54.8989 632.742 56.2282 640C59.4704 617.318 62.2912 595.349 65.4038 573.703C65.4038 573.282 65.4038 572.828 65.4038 572.407C68.419 531.644 81.615 513.077 88.0995 506.273H87.8077C88.4072 505.819 88.9809 505.332 89.5261 504.814C90.4663 503.94 91.1472 503.421 91.4714 503.162C98.8637 495.547 94.2597 488.256 90.8878 480.739C74.4608 445.3 70.2203 405.427 78.8267 367.328C84.76 340.887 103.792 323.811 128.141 314.123C137.868 310.267 149.702 311.984 161.245 311.109L146.168 299.898C165.615 294.958 186.134 296.366 204.723 303.916C222.555 311.239 238.313 323.584 255.27 333.888L252.027 324.427C259.809 327.213 266.844 329.838 273.977 332.203C320.86 347.724 367.451 343.253 413.588 328.963C419.684 327.116 424.482 321.219 430.059 317.428C431.987 316.09 434.213 315.244 436.544 314.965C457.845 312.988 478.985 312.664 498.795 322.839C500.861 323.621 503.077 323.931 505.279 323.746C553.556 324.005 588.572 354.4 596.419 402.745C600.448 428.799 595.788 455.455 583.158 478.6C581.967 480.412 581.199 482.468 580.913 484.617C580.627 486.765 580.829 488.951 581.504 491.011C582.218 492.112 582.931 493.182 583.612 494.251L585.622 497.686C587.373 500.408 588.864 503.421 591.036 507.083C618.207 555.979 615.969 573.639 615.418 576.101C616.683 593.761 617.72 611.453 618.661 629.145C618.661 630.83 618.661 632.385 618.661 634.167C622.144 628.869 624.576 622.95 625.826 616.734C629.554 594.052 634.353 571.532 635.844 548.688C638.568 507.407 639.249 465.963 640.675 424.552C641.162 410.781 641.389 396.945 641.745 383.173C642.491 356.571 645.96 330.713 662.658 308.387L660.842 306.249L628.128 324.168C627.799 318.962 628.544 313.745 630.318 308.839C632.091 303.934 634.855 299.445 638.438 295.653C645.604 288.135 653.806 281.622 661.912 274.364C650.694 268.953 641.518 275.206 631.111 278.382C638.082 266.29 645.803 254.645 654.228 243.516C656.515 240.613 659.839 238.709 663.501 238.202C666.743 238.04 669.985 240.989 673.227 242.544C672.028 235.156 670.342 227.282 662.658 223.102C652.185 217.335 643.723 224.01 634.807 229.583C639.411 210.854 650.434 200.42 663.987 201.133C680.847 201.976 689.925 212.863 693.167 236.42C702.31 221.061 698.193 203.207 683.246 194.296" />
<path d="M328 280.889C314.756 272.635 308.913 261.045 303.622 249.132C301.123 243.919 299.071 238.504 297.486 232.946C288.235 196.203 263.142 172.733 231.752 154.637C213.607 143.821 193.244 137.236 172.186 135.375C156.346 133.735 140.416 137.501 127 146.058C133.256 146.203 139.498 146.7 145.698 147.547C181.21 154.669 211.821 170.953 235.323 198.761C246.003 211.321 254.8 225.436 264.96 238.482C272.814 249.026 281.359 259.04 290.54 268.458C300.116 277.782 312.484 281.731 328 280.889Z" fill="white"/>
<path d="M325.517 199.689C345.031 222.955 355.406 250.686 365 279C363.439 269.292 362.398 259.747 360.219 250.33C357.195 237.387 353.715 224.443 349.747 211.5C340.738 182.377 320.476 162.962 294.133 149.113C289.003 146.349 283.379 144.612 277.578 144C272.178 144.061 266.858 145.31 262 147.657C278.684 158.917 292.311 172.087 301.027 189.334C306.533 201.05 311.227 213.126 315.077 225.479C319.956 239.911 325.094 254.149 334.851 266.218C337.095 268.936 339.535 271.493 342.266 274.567C343.015 246.544 340.966 237.646 325.615 199.592" fill="white"/>
<path d="M169 235C174.619 240.71 180.27 246.387 185.857 252.129C197.152 263.984 211.897 271.985 228 275" fill="white"/>
<path d="M198 178.053C208.487 196.271 218.614 215.237 230.114 233.357C238.512 246.62 247.973 259.185 258.405 270.93C263.209 276.65 269.295 281.166 276.172 284.116C283.049 287.065 290.526 288.365 298 287.912C297.487 286.757 296.84 285.665 296.073 284.659C275.799 265.124 258.221 242.993 243.802 218.848C234.328 203.655 223.645 189.569 206.821 181.501C204.403 180.33 201.953 179.192 199.47 178.248C199.011 178.037 198.502 177.959 198 178.021" fill="white"/>
<path d="M415.355 287C421.432 264.862 424.965 242.099 425.886 219.155C427.307 186.74 415.388 159.349 395.199 134.875C391.855 130.693 387.77 127.165 383.151 124.47C378.088 122.133 372.573 120.949 367 121.002C407.409 169.625 422.591 224.73 415.452 286.87" fill="white"/>
<path d="M437.002 285.903C441.634 266.265 446.802 246.723 450.71 226.924C455.09 207.445 453.154 187.033 445.195 168.784C444.376 166.975 443.462 165.199 442.485 163.487C441.912 162.469 441.1 161.614 440.122 161C445.416 188.293 434.702 213.552 431.299 239.682C429.063 253.102 429.719 266.86 433.221 279.992C433.851 282.059 434.734 283.997 435.49 286H437.002V285.903Z" fill="white"/>
<path d="M343 161C353.554 177.41 354.69 195.771 357.97 213.578C360.364 228.331 363.683 242.917 367.907 257.253C370.537 265.604 376.545 272.883 382 280C380.052 252.898 380.246 225.894 371.349 200.19C367.137 187.211 359.668 175.53 349.657 166.264C347.579 164.38 345.208 162.82 343.162 161.097" fill="white"/>
<path d="M448 292C476.731 281.129 493.387 208.903 475.782 194L448 292Z" fill="white"/>
<path d="M382 179C383.766 183.966 385.565 188.475 387.004 193.114C392.172 210.038 392.009 227.321 390.57 244.735C389.588 256.791 387.659 268.912 391.78 281C401.265 273.845 406.27 247.283 402.999 223.237C399.728 199.191 392.467 183.28 382 179Z" fill="white"/>
<path d="M518.482 1088.04C529.12 1125.26 533.272 1159.36 529.639 1176.37C528.601 1164.96 527.855 1152.36 526.396 1139.84C524.449 1121.43 519.451 1103.46 511.606 1086.68C510.506 1083.86 508.864 1081.29 506.773 1079.1C497.194 1071.18 489.195 1061.52 483.194 1050.64C482.091 1060.75 481.183 1070.41 479.95 1080.01C479.301 1085.1 477.68 1090.05 477.128 1095.14C475.967 1107.15 478.893 1119.2 485.432 1129.34C493.021 1141.53 501.422 1153.26 510.017 1164.74C517.688 1174.67 523.281 1186.05 526.461 1198.19C527.012 1200.36 527.531 1202.53 528.212 1205.29C529.023 1204.02 529.477 1203.38 529.866 1202.7C545.097 1174.76 551.668 1142.93 548.743 1111.25C548.444 1109.34 547.408 1107.62 545.856 1106.46C537.618 1100.52 529.153 1094.85 520.752 1089.08C520.061 1088.69 519.346 1088.35 518.612 1088.04H518.482ZM462.079 1131.29C462.468 1137.93 463.247 1144.58 463.344 1151.25C463.344 1159.55 462.987 1167.88 462.792 1176.18C460.684 1161.5 459.322 1146.81 457.506 1132.19C457.014 1127.09 455.745 1122.1 453.743 1117.38C450.919 1111.61 447.541 1106.13 443.656 1101.01C439.074 1094.83 433.429 1089.52 426.985 1085.32C427.828 1090.77 428.866 1095.82 429.418 1100.88C431.155 1118.76 429.077 1136.8 423.32 1153.81C422.717 1155.19 422.58 1156.73 422.932 1158.19C423.283 1159.66 424.103 1160.96 425.266 1161.92C428.51 1164.84 431.461 1167.95 434.769 1170.73C444.5 1179.1 454.684 1187.17 459.517 1199.91C459.517 1200.1 459.873 1200.17 460.263 1200.43C461.301 1198.74 462.371 1197.18 463.506 1195.4C471.059 1182.21 476.725 1168.03 480.339 1153.26C482.156 1146.33 482.48 1140.3 478.199 1133.81C474.913 1127.85 472.115 1121.62 469.831 1115.21C467.495 1119.45 465.03 1123.8 462.695 1128.17C462.27 1129.2 462.103 1130.31 462.209 1131.42L462.079 1131.29ZM391.859 1050.61C398.047 1087.67 400.362 1125.28 398.767 1162.83C396.51 1122.35 391.634 1082.06 384.172 1042.21C383.718 1042.89 383.426 1043.15 383.361 1043.44C380.09 1054.34 374.955 1064.58 368.182 1073.72C360.787 1084.54 353.295 1095.27 345.867 1106.13C344.378 1108.31 343.455 1110.82 343.183 1113.44C342.911 1116.06 343.299 1118.71 344.31 1121.14C347.804 1130.12 353.178 1138.26 360.073 1145C369.123 1154.43 378.626 1163.51 387.48 1173.17C391.438 1178.03 395.099 1183.13 398.443 1188.43C398.67 1188.04 399.027 1187.59 399.286 1187.1C408.581 1171.22 415.21 1153.92 418.909 1135.89C423.102 1117.03 421.979 1097.39 415.666 1079.13C414.768 1077.02 413.518 1075.08 411.968 1073.39C405.87 1066.04 399.611 1058.81 393.448 1051.48C393.192 1051.01 393.007 1050.51 392.897 1049.99L391.956 1050.67L391.859 1050.61ZM278.437 1162.63C278.274 1150.02 277.95 1137.38 278.437 1124.74C278.923 1112.1 279.734 1099.75 280.902 1087.27C282.069 1074.79 283.918 1062.5 285.475 1050.09C282.231 1054.46 279.15 1058.94 275.745 1063.05C272.339 1067.17 268.058 1070.9 264.23 1074.82C263.646 1075.38 263.192 1076.07 262.901 1076.83C259.29 1085.99 257.102 1095.66 256.414 1105.48C255.462 1127.44 259.823 1149.3 269.128 1169.21C272.047 1175.89 275.615 1182.18 278.469 1188.27C284.599 1180.69 290.21 1173.1 296.535 1166.13C302.859 1159.16 310.838 1151.97 317.779 1144.71C324.56 1138.02 329.834 1129.96 333.25 1121.08C334.197 1118.75 334.568 1116.24 334.33 1113.74C334.093 1111.25 333.255 1108.85 331.888 1106.75C324.234 1095.53 316.385 1084.45 308.827 1073.2C302.586 1064.69 297.777 1055.22 294.589 1045.16C294.329 1044.32 294.005 1043.54 293.681 1042.73H292.675C289.789 1062.7 286.48 1082.66 284.113 1102.73C281.745 1122.79 280.35 1142.7 278.501 1162.7L278.437 1162.63ZM254.208 1153.91C248.555 1137.1 246.5 1119.28 248.175 1101.63C248.727 1096.38 249.765 1091.12 250.576 1085.84C250.322 1085.9 250.072 1085.97 249.83 1086.07L248.662 1086.88C231.764 1100.27 220.217 1116.57 219.114 1139.1C218.498 1151.58 216.682 1163.99 215.417 1176.57C213.795 1168.82 213.828 1143.57 215.417 1132.78C215.776 1131.44 215.776 1130.03 215.417 1128.69C213.049 1124.03 210.422 1119.52 208.281 1115.73C204.26 1123.9 200.076 1132.36 196.021 1140.88C195.591 1142.06 195.501 1143.34 195.762 1144.58C198.173 1158.02 202.327 1171.1 208.119 1183.47C210.876 1189.31 214.152 1194.92 217.201 1200.62H218.141C222.877 1186.68 234.358 1178.55 244.673 1169.5C247.3 1167.2 249.732 1164.64 252.327 1162.27C253.543 1161.29 254.401 1159.94 254.764 1158.42C255.128 1156.9 254.978 1155.3 254.338 1153.88L254.208 1153.91ZM148.181 1177.51C145.064 1146.76 149.071 1115.7 159.89 1086.75L150.159 1093.59C144.418 1097.57 138.678 1101.5 132.904 1105.45C131.565 1106.28 130.474 1107.46 129.744 1108.86C129.014 1110.25 128.671 1111.82 128.753 1113.39C128.412 1120.01 128.412 1126.64 128.753 1133.26C130.084 1145.34 132.022 1157.33 134.559 1169.21C137.629 1181.95 142.615 1194.14 149.348 1205.39C149.77 1203.89 150.062 1203.12 150.257 1202.34C153.259 1188.22 159.486 1174.98 168.452 1163.67C177.094 1152.64 185.066 1141.1 192.324 1129.11C196.451 1122.68 199.163 1115.44 200.281 1107.88C201.399 1100.32 200.898 1092.61 198.811 1085.26C197.78 1080.83 197.139 1076.31 196.897 1071.77C196.119 1064.87 195.502 1057.96 194.756 1050.41C189.573 1059.58 183.009 1067.9 175.296 1075.08C173.123 1077.15 170.074 1078.84 168.809 1081.37C164.816 1089.8 161.318 1098.46 158.333 1107.3C153.486 1122.57 150.47 1138.35 149.348 1154.33C148.732 1161.98 148.343 1169.66 147.856 1177.31L148.181 1177.51ZM474.826 1226.75C472.438 1237.47 468.308 1247.73 462.598 1257.12C470.411 1236.38 474.591 1214.45 474.955 1192.29C471.712 1197.67 469.052 1202.24 466.133 1206.58C463.214 1210.93 459.873 1215.24 456.76 1219.55C454.197 1212.52 452.024 1205.64 449.235 1199.06C446.446 1192.48 440.737 1187.53 434.575 1182.4C434.964 1183.89 435.126 1184.67 435.386 1185.39C441.847 1202.91 444.361 1221.65 442.748 1240.26C442.756 1241.74 443.088 1243.2 443.721 1244.54C446.234 1250.29 448.4 1256.17 450.208 1262.18C451.334 1268.44 452.049 1274.78 452.349 1281.14C452.661 1280.99 452.955 1280.8 453.224 1280.59C470.804 1265.38 485.438 1247.08 496.394 1226.58C503.745 1213.07 508.238 1198.18 509.595 1182.86C509.826 1181.26 509.566 1179.63 508.849 1178.19C502.557 1169.47 496.07 1160.95 489.68 1152.26C486.437 1162.14 483.194 1171.71 479.95 1181.43C479.751 1182.35 479.686 1183.29 479.756 1184.22C479.901 1198.51 478.344 1212.76 475.117 1226.68L474.826 1226.75ZM363.09 1317.99C369.579 1310.99 373.728 1302.14 374.961 1292.68C375.128 1290.79 374.61 1288.9 373.501 1287.36C365.485 1277.87 359.205 1267.04 354.949 1255.37C354.634 1254.83 354.253 1254.33 353.814 1253.88C350.765 1259.39 347.684 1264.35 345.186 1269.6C343.475 1272.91 342.376 1276.5 341.943 1280.2C341.035 1290.34 340.775 1300.52 340.224 1310.7C339.932 1316.15 339.64 1321.59 339.316 1326.91C338.715 1325.86 338.402 1324.68 338.407 1323.47C337.824 1311.54 336.818 1299.61 336.786 1287.82C336.786 1274.85 330.915 1264.51 323.423 1253.78C319.068 1266.41 312.354 1278.11 303.638 1288.24C302.889 1289.52 302.603 1291.02 302.827 1292.48C303.609 1300.22 306.655 1307.56 311.584 1313.59C320.504 1324.48 329.877 1335.04 339.153 1346C340.353 1344.48 341.391 1342.76 342.591 1341.53C349.467 1333.71 356.506 1326.03 363.22 1318.09L363.09 1317.99ZM202.605 1192.87C202.605 1215.3 207.762 1236.34 214.833 1257.09C212.785 1253.81 210.985 1250.39 209.449 1246.84C201.745 1227.81 197.887 1207.44 198.097 1186.91C197.905 1183.68 197.306 1180.49 196.313 1177.41C194.108 1169.89 191.675 1162.44 189.307 1154.98C189.08 1154.17 188.821 1153.36 188.432 1152.16C182.367 1160.1 176.723 1167.69 170.82 1175.11C169.641 1176.55 168.801 1178.25 168.363 1180.06C167.925 1181.87 167.9 1183.76 168.29 1185.58C168.874 1189.05 169.296 1192.52 170.074 1195.95C175.62 1220.39 188.01 1241.33 204.26 1260C210.746 1267.46 217.914 1274.33 224.758 1281.49L225.828 1280.85C224.724 1268.47 227.285 1256.03 233.191 1245.09C234.148 1243.27 234.586 1241.22 234.456 1239.16C233.322 1225.84 234.418 1212.42 237.699 1199.45C239.029 1193.91 240.943 1188.53 242.467 1183.25C239.235 1185.51 236.255 1188.12 233.58 1191.03C226.218 1199.06 223.558 1209.24 221.287 1219.62L220.282 1219.91L202.314 1193.17L202.605 1192.87ZM258.814 1168.6C243.245 1198.45 237.31 1229.05 247.365 1261.5C253.851 1282.24 265.982 1299.29 282.134 1315.04C283.594 1300.36 290.567 1289.7 299.357 1279.78C305.66 1272.2 310.669 1263.64 314.179 1254.43C315.533 1251.78 316.065 1248.78 315.706 1245.82C315.348 1242.87 314.116 1240.09 312.168 1237.83C300.853 1223.36 293.628 1206.12 291.248 1187.91C291.002 1187.32 290.687 1186.75 290.307 1186.23L280.772 1206.65C279.02 1204.28 277.528 1202.21 275.388 1199.49C271.204 1230.22 268.901 1260.1 274.382 1290.25C273.543 1288.58 272.953 1286.8 272.631 1284.96C270.602 1273.81 269.259 1262.54 268.609 1251.22C268.447 1232.55 269.841 1213.85 270.555 1195.14C270.789 1193.89 270.722 1192.6 270.36 1191.38C266.728 1183.96 262.868 1176.6 258.814 1168.69V1168.6ZM335.294 1136.5C333.392 1139.33 331.334 1142.04 329.131 1144.64C320.341 1153.88 311.519 1163.05 302.503 1172.06C301.381 1173.06 300.505 1174.3 299.943 1175.69C299.38 1177.08 299.146 1178.58 299.259 1180.07C299.371 1192.15 302.468 1204.02 308.276 1214.62C317.714 1230.83 328.158 1246.2 338.472 1262.34C348.202 1247.56 357.933 1233.62 366.787 1219.03C374.352 1206.66 378.213 1192.39 377.912 1177.9C377.8 1176 377.031 1174.2 375.739 1172.81C371.49 1168.3 366.787 1164.25 362.538 1159.84C355.468 1152.32 348.624 1144.54 341.651 1136.86C340.84 1170.35 340.061 1204.15 339.251 1237.96H338.829C337.629 1204.32 336.461 1170.67 335.229 1136.21L335.294 1136.5ZM418.098 1168.98C415.212 1174.85 412.649 1180.88 409.341 1186.49C407.272 1189.99 406.459 1194.1 407.038 1198.12C409.805 1221.98 409.947 1246.07 407.46 1269.96C407.168 1272.26 406.843 1274.59 406.422 1276.89C406 1279.19 405.449 1281.72 404.865 1284.09C404.281 1286.45 403.697 1288.27 403.081 1290.34C408.53 1260.13 406.325 1230.15 401.913 1199.26L396.627 1206.2C393.383 1199.26 390.335 1192.74 386.896 1185.48C385.307 1192.42 384.204 1198.45 382.518 1204.19C378.464 1218.19 370.485 1230.12 362.279 1242.05C361.628 1242.92 361.207 1243.94 361.054 1245.01C360.901 1246.09 361.021 1247.19 361.403 1248.21C365.125 1260.31 371.247 1271.54 379.404 1281.24C382.686 1284.73 385.569 1288.58 387.999 1292.71C391.243 1299.19 393.61 1306.42 396.335 1313.33C416.055 1295.04 432.726 1267.75 434.802 1235.92C436.164 1214.66 427.407 1178.71 418.131 1168.76L418.098 1168.98ZM119.736 1121.08C119.736 1123.7 119.736 1126.88 119.996 1130.8C119.996 1127.56 119.768 1124.32 119.833 1121.08H119.736ZM592.043 1016.7C580.756 989.764 570.15 962.536 554.095 937.901L562.203 941.628C564.441 945.81 566.679 950.024 568.69 954.335C571.934 961.077 574.917 967.949 577.707 974.886C580.496 981.822 583.026 988.629 585.394 995.631C587.761 1002.63 589.772 1009.67 591.881 1016.7H592.043ZM555.392 1036.93C559.706 1051.58 565.414 1081.24 564.539 1087.43C558.83 1061.3 552.181 1035.57 541.218 1011.06C541.802 1008.24 542.321 1005.48 542.775 1002.76C547.78 1013.84 551.996 1025.26 555.392 1036.93ZM480.177 906.394C480.231 908.411 479.786 910.411 478.88 912.214C477.975 914.018 476.638 915.571 474.988 916.734C458.422 925.055 439.235 926.491 421.614 920.728C403.993 914.965 389.367 902.471 380.929 885.973C377.945 879.911 374.701 877.35 367.955 877.739C358.744 878.29 349.5 877.739 340.256 877.739C339.111 877.804 337.963 877.804 336.818 877.739C316.385 875.211 299.746 877.35 290.113 900.429C283.95 915.178 268.252 921.661 251.646 921.304C237.537 921.013 223.396 920.202 209.481 918.549C201.049 917.544 198.227 912.941 200.173 903.12C205.946 873.947 218.725 853.169 251.257 848.534C267.052 846.297 282.394 840.398 297.702 835.568C306.025 832.882 314.064 829.386 321.704 825.13C332.05 819.263 342.948 815.406 353.197 822.537C371.912 835.276 393.773 838.161 414.498 844.676C427.666 848.858 441.321 851.937 453.873 857.448C460.564 860.69 466.001 866.044 469.344 872.682C474.218 883.503 477.915 894.816 480.372 906.426L480.177 906.394ZM218.401 1084.71C220.154 1059.45 224.602 1034.46 231.666 1010.15L237.602 1006.72C228.326 1032 223.623 1058.58 218.401 1084.8V1084.71ZM437.688 999.488L444.954 1004.71C446.381 1009.21 447.775 1013.78 448.976 1018.42C450.889 1025.65 452.511 1032.97 453.938 1040.33C455.365 1047.69 456.533 1054.82 457.506 1062.15C458.479 1069.47 459.127 1076.76 459.906 1084.09C453.97 1055.47 448.781 1026.72 437.688 999.488ZM139.294 1005.39C126.677 1031.61 119.347 1059.52 112.99 1087.82C114.57 1070.58 117.763 1053.53 122.525 1036.89C126.563 1023.27 131.682 1009.99 137.834 997.187L139.294 1005.39ZM122.752 937.998C106.698 962.633 96.0915 989.861 84.8044 1016.8C86.9775 1009.76 88.9885 1002.7 91.2913 995.728C93.5941 988.759 96.1889 981.822 98.9782 974.983C101.768 968.143 104.751 961.174 107.995 954.432C110.103 950.121 112.341 945.907 114.482 941.725L122.59 937.998H122.752ZM78.0257 973.006C78.0257 973.006 78.0257 973.232 78.0257 973.362L78.2203 973.006H78.0257ZM634.921 842.829C634.492 840.182 633.907 837.562 633.169 834.984C629.926 811.451 624.736 787.918 624.347 764.353C623.828 734.953 629.342 705.423 628.693 676.056C628.11 650.773 629.05 616.154 629.958 591L616.985 600.433C614.805 620.113 611.218 639.611 606.249 658.779C596.324 696.542 589.61 735.18 582.572 773.624C576.636 806.038 568.204 837.934 547.121 863.833C535.121 878.55 526.039 892.391 530.061 911.936C530.061 912.293 529.218 912.877 528.115 914.011C521.628 892.488 514.785 871.516 508.881 850.317C506.74 842.545 503.086 835.271 498.127 828.913C493.168 822.556 487.002 817.239 479.983 813.267C449.993 795.224 417.889 780.951 384.399 770.771C381.229 769.494 377.791 769.023 374.395 769.402C370.998 769.781 367.748 770.998 364.939 772.943C348.105 783.867 331.239 783.316 313.92 772.943C311.379 771.529 308.583 770.632 305.694 770.304C302.805 769.976 299.879 770.223 297.086 771.031C270.879 780.755 244.997 791.581 219.244 802.278C189.275 814.628 171.274 836.897 164.884 868.663C163.522 875.438 161.641 882.083 159.695 888.728C157.165 897.577 154.473 906.394 151.846 915.243C150.826 907.946 150.219 900.598 150.03 893.233C149.842 888.491 148.25 883.911 145.456 880.073C123.11 855.918 107.947 826.014 101.67 793.721C94.6645 759.945 89.5723 725.65 82.6962 691.939C76.5337 661.502 66.2197 631.615 62.9114 600.919C62.9114 599.979 62.9114 599.071 62.7168 598.131H50.781C51.5594 622.81 51.5594 647.531 50.781 672.296C50.0122 682.594 50.1207 692.939 51.1053 703.219C55.6785 734.564 57.8516 765.844 53.8622 797.481C50.6188 823.607 41.44 848.988 44.6834 876.054C47.0835 896.28 46.5321 916.864 49.3863 936.993C52.2405 957.123 57.7543 976.668 62.0681 996.506L64.9223 996.182L76.7608 974.659C76.7608 976.182 77.1175 979.229 77.5068 983.346C77.5068 1011.55 81.0097 1036.44 91.4535 1061.14C91.7353 1049.82 92.8956 1038.54 94.9239 1027.4C98.3838 1022.44 102.484 1017.96 107.119 1014.07C99.2922 1041.08 97.7501 1069.52 102.611 1097.22C104.07 1105.09 106.373 1112.81 108.481 1121.43L111.498 1117.54C115.066 1112.94 117.985 1107.49 122.331 1103.93C132.061 1095.95 142.667 1088.66 153.241 1081.56C169.717 1070.51 183.567 1057.28 190.897 1038.39C191.935 1035.7 192.843 1032.94 193.751 1030.12C197.429 1027.49 201.275 1025.11 205.265 1022.99C203.447 1037.53 203.186 1052.22 204.487 1066.81C205.742 1082.5 209.703 1097.85 216.195 1112.19C219.633 1107.01 222.682 1102.05 225.926 1097.32C233.126 1087.27 243.181 1080.3 252.846 1072.87C271.009 1058.9 283.983 1041.53 286.934 1018.09C287.615 1012.94 287.68 1007.72 287.907 1002.54L297.638 993.297C297.608 993.556 297.608 993.817 297.638 994.075C297.897 1002.5 298.189 1010.93 298.74 1019.33C299.413 1035.91 304.704 1051.97 314.017 1065.71C322.223 1077.38 330.234 1089.11 338.894 1101.37C348.462 1087.2 357.835 1073.52 366.982 1059.68C372.831 1050.72 376.395 1040.46 377.361 1029.8C378.528 1018.39 379.08 1002.11 379.956 990.672C383.815 994.399 387.221 997.706 389.686 1000.14C389.686 1013.1 391.729 1029.8 397.243 1041.08C404.514 1055.03 415.19 1066.93 428.282 1075.66C441.625 1084.67 452.55 1096.81 460.1 1111.03C460.295 1111.38 460.684 1111.61 461.463 1112.36C463.701 1105.87 466.101 1099.84 467.949 1093.68C474.793 1069.37 474.89 1044.71 472.004 1019.84V1019.65L482.123 1023.86C485.842 1041.13 494.923 1056.79 508.071 1068.6C515.693 1075.27 524.288 1080.69 532.591 1086.75C540.894 1092.81 549.165 1098.55 556.754 1105.22C561.193 1109.84 565.229 1114.83 568.82 1120.14C569.241 1118.84 569.76 1117.44 570.215 1116.02C580.399 1082.96 579.62 1049.99 571.252 1017.12C575.274 1021.14 579.264 1025.53 583.221 1030.28C585.27 1042.34 586.258 1054.55 586.172 1066.78C589.254 1060.24 591.93 1053.52 594.183 1046.65C596.227 1043.02 600.378 1033.69 601.027 1011.35C601.896 999.057 601.363 986.704 599.438 974.529C599.422 974.378 599.422 974.226 599.438 974.075L602.681 974.367L615.655 997.057C616.519 995.45 617.288 993.795 617.958 992.098C633.494 943.476 635.472 893.201 634.921 842.699" />
<path d="M1138.25 817.062C1188.41 816.7 1226.26 806.378 1251.8 786.096C1277.33 765.814 1290.13 735.633 1290.19 695.553C1290.8 675.302 1284.73 655.413 1272.9 638.963C1260.57 622.962 1243.06 611.756 1223.37 607.273C1241.09 601.175 1256.32 589.44 1266.74 573.863C1279.84 551.311 1284.3 524.772 1279.31 499.177C1274.31 473.581 1260.19 450.67 1239.57 434.698C1211.93 415.201 1171.6 405.483 1118.6 405.543H971V817.515L1138.25 817.062ZM1139.97 641.861C1174.11 641.861 1191.13 659.245 1191.13 693.651C1191.49 700.129 1190.39 706.606 1187.89 712.596C1185.4 718.585 1181.59 723.933 1176.73 728.239C1164.89 737.167 1150.24 741.539 1135.44 740.553H1070.33V641.861H1139.97ZM1070.33 481.419H1118.96C1141.24 481.419 1157.38 485.251 1167.4 492.917C1172.69 497.549 1176.81 503.371 1179.41 509.904C1182 516.437 1183.01 523.494 1182.35 530.493C1182.83 536.89 1181.85 543.314 1179.48 549.276C1177.12 555.238 1173.42 560.581 1168.67 564.899C1159.44 572.686 1143.98 576.67 1122.31 576.851H1070.33V481.509V481.419ZM1628.58 816.972H1734.98V812.716L1648.59 646.479C1670.81 636.869 1689.7 620.935 1702.92 600.664C1715.26 579.031 1721.31 554.384 1720.4 529.497C1720.4 489.96 1706.61 459.326 1679.02 437.595C1651.43 415.865 1613.25 405.03 1564.47 405.09H1402.75V817.062H1502.35V671.378H1556.14L1628.58 817.062V816.972ZM1501.81 481.419H1564.65C1572.38 480.869 1580.13 481.929 1587.43 484.532C1594.72 487.135 1601.4 491.224 1607.03 496.539C1616.36 508.434 1621.44 523.115 1621.44 538.234C1621.44 553.353 1616.36 568.034 1607.03 579.929C1601.35 585.222 1594.64 589.281 1587.31 591.853C1579.99 594.424 1572.21 595.451 1564.47 594.869H1501.63V481.509L1501.81 481.419ZM2094.01 568.521H1938.36V481.69H2123.44V405H1838.75V816.972H2122.54V740.553H1938.36V641.861H2094.56V568.249L2094.01 568.521ZM2482.48 405H2398.17L2341.58 663.32L2294.31 405H2195.79L2283.54 816.972H2386.22L2440.55 582.103L2495.79 816.972H2598.47L2685.94 405H2587.42L2540.16 663.32L2482.75 405H2482.48ZM2923.28 816.972C2953.73 817.195 2983.67 809.085 3009.84 793.521C3035.65 778.108 3056.58 755.733 3070.24 728.963C3085 700.283 3092.47 668.408 3091.97 636.157V582.736C3092 550.834 3084.23 519.408 3069.34 491.197C3055.33 464.829 3034.26 442.882 3008.49 427.817C2982.17 412.597 2952.23 404.776 2921.83 405.181H2808.1V817.152L2923.28 816.972ZM2924.09 420.302C2951.72 420.478 2978.78 428.212 3002.33 442.666C3025.81 456.817 3044.85 477.27 3057.29 501.7C3070.56 527.603 3077.31 556.352 3076.94 585.453V638.33C3077.14 667.526 3070.14 696.322 3056.57 722.173C3043.91 746.606 3024.65 766.996 3000.97 781.026C2977.11 795.16 2949.83 802.458 2922.1 802.122H2823.4V420.392L2924.09 420.302ZM3466.86 597.404H3260.4V420.392H3495.83V405.09H3245.28V817.062H3495.83V801.76H3260.4V612.796H3467.04V597.494L3466.86 597.404ZM3602.68 405H3586.38L3740.32 816.972H3758.97L3912.91 405H3896.25L3757.8 776.77L3749.65 801.67L3741.41 776.77L3603.04 405H3602.68Z" />
</svg>
